<svg width="32" height="32" viewBox="0 0 32 32" fill="none" xmlns="http://www.w3.org/2000/svg">
<path d="M7.76 15.1867L13.9467 23.848H2V9H13.9467L7.76 15.1867ZM7.20533 15.7413L2.78933 20.1573V23.0587H12.432L7.20533 15.7413Z" fill="#292929"/>
<path d="M29.4823 23.848H18.069V9H23.8503C25.0877 9 26.0974 9.22044 26.8797 9.66133C27.6477 10.088 28.245 10.6711 28.6717 11.4107C29.0983 12.1502 29.3117 12.968 29.3117 13.864C29.3117 14.9733 28.9703 15.9689 28.2877 16.8507C27.605 17.7182 26.7446 18.2942 25.7063 18.5787L29.4823 23.848ZM19.413 9.78933L25.2157 17.896C26.1686 17.6969 26.9579 17.2204 27.5837 16.4667C28.2094 15.7129 28.5223 14.8453 28.5223 13.864C28.5223 13.0818 28.3303 12.3707 27.9463 11.7307C27.5623 11.0907 27.0219 10.6 26.325 10.2587C25.6992 9.94578 24.8814 9.78933 23.8717 9.78933H19.413ZM18.8583 10.3013V17.96H24.341L18.8583 10.3013ZM18.8583 23.0587H27.989L24.8743 18.728L24.213 18.7493H18.8583V23.0587Z" fill="#292929"/>
</svg>
