<svg width="213" height="48" viewBox="0 0 213 48" fill="none" xmlns="http://www.w3.org/2000/svg">
<path d="M17.8 8.89589L19.464 10.5599L4.16797 25.9199L19.464 41.2159L17.8 42.8799L0.839966 25.9199L17.8 8.89589Z" fill="#292929"/>
<path d="M60.695 22.0159L79.255 47.9999H43.415V3.45589H79.255L60.695 22.0159ZM59.031 23.6799L45.783 36.9279V45.6319H74.711L59.031 23.6799Z" fill="#292929"/>
<path d="M125.862 47.9999H91.622V3.45589H108.966C112.678 3.45589 115.707 4.11722 118.054 5.43989C120.358 6.71989 122.15 8.46922 123.43 10.6879C124.71 12.9066 125.35 15.3599 125.35 18.0479C125.35 21.3759 124.326 24.3626 122.278 27.0079C120.23 29.6106 117.649 31.3386 114.534 32.1919L125.862 47.9999ZM95.654 5.82389L113.062 30.1439C115.921 29.5466 118.289 28.1172 120.166 25.8559C122.043 23.5946 122.982 20.9919 122.982 18.0479C122.982 15.7012 122.406 13.5679 121.254 11.6479C120.102 9.72789 118.481 8.25589 116.39 7.23189C114.513 6.29322 112.059 5.82389 109.03 5.82389H95.654ZM93.99 7.35989V30.3359H110.438L93.99 7.35989ZM93.99 45.6319H121.382L112.038 32.6399L110.054 32.7039H93.99V45.6319Z" fill="#292929"/>
<path d="M137.973 47.9999L168.757 0.639893H171.637L140.853 47.9999H137.973Z" fill="#292929"/>
<path d="M208.836 25.9199L193.54 10.5599L195.204 8.89589L212.164 25.9199L195.204 42.8799L193.54 41.2159L208.836 25.9199Z" fill="#292929"/>
</svg>
